<svg xmlns="http://www.w3.org/2000/svg" xmlns:xlink="http://www.w3.org/1999/xlink" width="500" zoomAndPan="magnify" viewBox="0 0 375 374.999991" height="500" preserveAspectRatio="xMidYMid meet" version="1.0"><defs><g/></defs><rect x="-37.5" width="450" fill="#ffffff" y="-37.499999" height="449.999989" fill-opacity="1"/><rect x="-37.5" width="450" fill="#ffffff" y="-37.499999" height="449.999989" fill-opacity="1"/><rect x="-37.5" width="450" fill="#ffffff" y="-37.499999" height="449.999989" fill-opacity="1"/><g fill="#000000" fill-opacity="1"><g transform="translate(32.634107, 231.74739)"><g><path d="M 41.421875 -81.546875 L 89.671875 -27.265625 L 89.671875 -82.59375 L 90.984375 -82.59375 L 90.984375 -11.796875 L 89.671875 -11.796875 L 89.671875 -25.296875 L 40.109375 -80.890625 C 40.023438 -80.972656 39.914062 -81.054688 39.78125 -81.140625 C 39.65625 -81.234375 39.546875 -81.28125 39.453125 -81.28125 C 39.367188 -81.28125 39.304688 -81.234375 39.265625 -81.140625 C 39.222656 -81.054688 39.203125 -80.972656 39.203125 -80.890625 L 39.203125 -11.796875 L 37.890625 -11.796875 L 37.890625 -81.140625 C 37.890625 -81.671875 38.0625 -82.066406 38.40625 -82.328125 C 38.757812 -82.585938 39.109375 -82.71875 39.453125 -82.71875 C 39.804688 -82.71875 40.113281 -82.628906 40.375 -82.453125 C 40.632812 -82.285156 40.984375 -81.984375 41.421875 -81.546875 Z M 48.5 0 C 50.164062 0 51.367188 -0.367188 52.109375 -1.109375 C 52.847656 -1.859375 53.21875 -3.0625 53.21875 -4.71875 L 53.21875 -47.984375 L 75.640625 -20.84375 L 75.640625 -4.71875 C 75.640625 -3.0625 76.007812 -1.859375 76.75 -1.109375 C 77.5 -0.367188 78.703125 0 80.359375 0 L 100.03125 0 C 101.6875 0 102.882812 -0.367188 103.625 -1.109375 C 104.375 -1.859375 104.75 -3.0625 104.75 -4.71875 L 104.75 -89.671875 C 104.75 -91.328125 104.375 -92.523438 103.625 -93.265625 C 102.882812 -94.015625 101.6875 -94.390625 100.03125 -94.390625 L 80.359375 -94.390625 C 78.703125 -94.390625 77.5 -94.015625 76.75 -93.265625 C 76.007812 -92.523438 75.640625 -91.328125 75.640625 -89.671875 L 75.640625 -61.75 L 50.203125 -90.84375 C 49.066406 -92.15625 47.910156 -93.070312 46.734375 -93.59375 C 45.554688 -94.125 44.132812 -94.390625 42.46875 -94.390625 L 28.84375 -94.390625 C 27.175781 -94.390625 25.972656 -94.015625 25.234375 -93.265625 C 24.492188 -92.523438 24.125 -91.328125 24.125 -89.671875 L 24.125 -4.71875 C 24.125 -3.0625 24.492188 -1.859375 25.234375 -1.109375 C 25.972656 -0.367188 27.175781 0 28.84375 0 Z M 52.703125 0.125 L 35.65625 14.296875 C 35.3125 14.640625 34.765625 14.941406 34.015625 15.203125 C 33.273438 15.460938 32.46875 15.59375 31.59375 15.59375 L 11.921875 15.59375 C 9.828125 15.59375 8.300781 15.113281 7.34375 14.15625 C 6.382812 13.195312 5.90625 11.664062 5.90625 9.5625 L 5.90625 -75.375 C 5.90625 -76.507812 6.054688 -77.46875 6.359375 -78.25 C 6.660156 -79.039062 7.117188 -79.703125 7.734375 -80.234375 L 24.640625 -94.515625 C 25.078125 -94.867188 25.664062 -95.15625 26.40625 -95.375 C 27.15625 -95.59375 27.96875 -95.703125 28.84375 -95.703125 L 42.46875 -95.703125 C 44.394531 -95.703125 46.015625 -95.394531 47.328125 -94.78125 C 48.640625 -94.164062 49.945312 -93.160156 51.25 -91.765625 L 60.296875 -81.28125 L 76.171875 -94.515625 C 76.609375 -94.867188 77.195312 -95.15625 77.9375 -95.375 C 78.675781 -95.59375 79.484375 -95.703125 80.359375 -95.703125 L 100.03125 -95.703125 C 102.125 -95.703125 103.648438 -95.21875 104.609375 -94.25 C 105.578125 -93.289062 106.0625 -91.765625 106.0625 -89.671875 L 106.0625 -4.71875 C 106.0625 -3.582031 105.90625 -2.617188 105.59375 -1.828125 C 105.289062 -1.046875 104.832031 -0.394531 104.21875 0.125 L 87.171875 14.296875 C 86.828125 14.640625 86.28125 14.941406 85.53125 15.203125 C 84.789062 15.460938 83.984375 15.59375 83.109375 15.59375 L 63.453125 15.59375 C 61.347656 15.59375 59.816406 15.113281 58.859375 14.15625 C 57.898438 13.195312 57.421875 11.664062 57.421875 9.5625 L 57.421875 -6.03125 L 54.53125 -9.5625 L 54.53125 -4.71875 C 54.53125 -3.582031 54.378906 -2.617188 54.078125 -1.828125 C 53.773438 -1.046875 53.316406 -0.394531 52.703125 0.125 Z M 52.703125 0.125 "/></g></g></g><g fill="#000000" fill-opacity="1"><g transform="translate(144.454198, 231.74739)"><g><path d="M 32.25 15.59375 L 11.921875 15.59375 C 9.828125 15.59375 8.300781 15.113281 7.34375 14.15625 C 6.382812 13.195312 5.90625 11.664062 5.90625 9.5625 L 5.90625 -75.375 C 5.90625 -76.507812 6.054688 -77.46875 6.359375 -78.25 C 6.660156 -79.039062 7.117188 -79.703125 7.734375 -80.234375 L 24.640625 -94.515625 C 25.078125 -94.867188 25.664062 -95.15625 26.40625 -95.375 C 27.15625 -95.59375 27.96875 -95.703125 28.84375 -95.703125 L 68.953125 -95.703125 C 75.160156 -95.703125 80.359375 -95.046875 84.546875 -93.734375 C 88.742188 -92.421875 92.066406 -90.582031 94.515625 -88.21875 C 96.960938 -85.863281 98.6875 -83.023438 99.6875 -79.703125 C 100.695312 -76.378906 101.203125 -72.753906 101.203125 -68.828125 L 101.203125 -52.046875 C 101.203125 -47.847656 100.613281 -44.019531 99.4375 -40.5625 C 98.257812 -37.113281 96.226562 -34.164062 93.34375 -31.71875 L 76.296875 -17.5625 C 74.109375 -15.726562 71.285156 -14.222656 67.828125 -13.046875 C 64.378906 -11.867188 60.164062 -11.191406 55.1875 -11.015625 L 55.1875 -4.71875 C 55.1875 -3.582031 55.03125 -2.617188 54.71875 -1.828125 C 54.414062 -1.046875 53.960938 -0.394531 53.359375 0.125 L 36.3125 14.296875 C 35.957031 14.640625 35.410156 14.941406 34.671875 15.203125 C 33.929688 15.460938 33.125 15.59375 32.25 15.59375 Z M 49.15625 0 C 50.820312 0 52.023438 -0.367188 52.765625 -1.109375 C 53.503906 -1.859375 53.875 -3.0625 53.875 -4.71875 L 53.875 -26.484375 L 68.953125 -26.484375 C 80.835938 -26.484375 88.960938 -28.84375 93.328125 -33.5625 C 97.703125 -38.28125 99.890625 -44.441406 99.890625 -52.046875 L 99.890625 -68.828125 C 99.890625 -76.429688 97.703125 -82.59375 93.328125 -87.3125 C 88.960938 -92.03125 80.835938 -94.390625 68.953125 -94.390625 L 28.84375 -94.390625 C 27.175781 -94.390625 25.972656 -94.015625 25.234375 -93.265625 C 24.492188 -92.523438 24.125 -91.328125 24.125 -89.671875 L 24.125 -4.71875 C 24.125 -3.0625 24.492188 -1.859375 25.234375 -1.109375 C 25.972656 -0.367188 27.175781 0 28.84375 0 Z M 67.125 -37.625 L 40.109375 -37.625 L 40.109375 -11.796875 L 38.796875 -11.796875 L 38.796875 -82.59375 L 67.125 -82.59375 C 71.226562 -82.59375 74.566406 -82.132812 77.140625 -81.21875 C 79.722656 -80.300781 81.710938 -79.050781 83.109375 -77.46875 C 84.503906 -75.894531 85.460938 -74.015625 85.984375 -71.828125 C 86.515625 -69.648438 86.78125 -67.296875 86.78125 -64.765625 L 86.78125 -55.0625 C 86.78125 -52.519531 86.515625 -50.175781 85.984375 -48.03125 C 85.460938 -45.894531 84.503906 -44.0625 83.109375 -42.53125 C 81.710938 -41.007812 79.722656 -39.8125 77.140625 -38.9375 C 74.566406 -38.0625 71.226562 -37.625 67.125 -37.625 Z M 40.109375 -38.9375 L 67.125 -38.9375 C 70.96875 -38.9375 74.085938 -39.328125 76.484375 -40.109375 C 78.890625 -40.898438 80.75 -42.015625 82.0625 -43.453125 C 83.375 -44.898438 84.269531 -46.601562 84.75 -48.5625 C 85.226562 -50.53125 85.46875 -52.695312 85.46875 -55.0625 L 85.46875 -64.765625 C 85.46875 -67.117188 85.226562 -69.300781 84.75 -71.3125 C 84.269531 -73.320312 83.375 -75.066406 82.0625 -76.546875 C 80.75 -78.035156 78.890625 -79.195312 76.484375 -80.03125 C 74.085938 -80.863281 70.96875 -81.28125 67.125 -81.28125 L 40.109375 -81.28125 Z M 53.625 -69.875 L 65.421875 -69.875 C 67.953125 -69.875 69.609375 -69.21875 70.390625 -67.90625 C 71.179688 -66.59375 71.578125 -65.109375 71.578125 -63.453125 L 71.578125 -56.5 C 71.578125 -54.84375 71.179688 -53.359375 70.390625 -52.046875 C 69.609375 -50.734375 67.953125 -50.078125 65.421875 -50.078125 L 53.625 -50.078125 Z M 53.625 -69.875 "/></g></g></g><g fill="#000000" fill-opacity="1"><g transform="translate(246.966887, 231.74739)"><g><path d="M 70 15.59375 L 38.015625 15.59375 C 26.566406 15.59375 18.109375 12.617188 12.640625 6.671875 C 7.179688 0.734375 4.453125 -6.953125 4.453125 -16.390625 L 4.453125 -53.21875 C 4.453125 -58.03125 5.148438 -62.203125 6.546875 -65.734375 C 7.953125 -69.273438 10.007812 -72.226562 12.71875 -74.59375 L 29.765625 -88.875 C 32.472656 -91.15625 35.921875 -92.863281 40.109375 -94 C 44.304688 -95.132812 49.242188 -95.703125 54.921875 -95.703125 L 86.921875 -95.703125 C 89.015625 -95.703125 90.539062 -95.21875 91.5 -94.25 C 92.46875 -93.289062 92.953125 -91.765625 92.953125 -89.671875 L 92.953125 -73.8125 C 92.953125 -72.664062 92.796875 -71.695312 92.484375 -70.90625 C 92.179688 -70.125 91.722656 -69.472656 91.109375 -68.953125 L 74.0625 -54.796875 C 73.71875 -54.441406 73.171875 -54.132812 72.421875 -53.875 C 71.679688 -53.613281 70.875 -53.484375 70 -53.484375 L 53.875 -53.484375 L 53.875 -31.328125 C 53.875 -29.492188 54.441406 -28.203125 55.578125 -27.453125 C 56.710938 -26.710938 58.375 -26.34375 60.5625 -26.34375 L 86.921875 -26.34375 C 89.015625 -26.34375 90.539062 -25.863281 91.5 -24.90625 C 92.46875 -23.945312 92.953125 -22.414062 92.953125 -20.3125 L 92.953125 -4.71875 C 92.953125 -3.582031 92.796875 -2.617188 92.484375 -1.828125 C 92.179688 -1.046875 91.722656 -0.394531 91.109375 0.125 L 74.0625 14.296875 C 73.71875 14.640625 73.171875 14.941406 72.421875 15.203125 C 71.679688 15.460938 70.875 15.59375 70 15.59375 Z M 86.921875 0 C 88.578125 0 89.773438 -0.367188 90.515625 -1.109375 C 91.265625 -1.859375 91.640625 -3.0625 91.640625 -4.71875 L 91.640625 -20.3125 C 91.640625 -21.976562 91.265625 -23.179688 90.515625 -23.921875 C 89.773438 -24.660156 88.578125 -25.03125 86.921875 -25.03125 L 60.5625 -25.03125 C 57.851562 -25.03125 55.84375 -25.53125 54.53125 -26.53125 C 53.21875 -27.539062 52.5625 -29.140625 52.5625 -31.328125 L 52.5625 -62.53125 C 52.5625 -64.71875 53.21875 -66.359375 54.53125 -67.453125 C 55.84375 -68.546875 57.851562 -69.09375 60.5625 -69.09375 L 86.921875 -69.09375 C 88.578125 -69.09375 89.773438 -69.460938 90.515625 -70.203125 C 91.265625 -70.941406 91.640625 -72.144531 91.640625 -73.8125 L 91.640625 -89.671875 C 91.640625 -91.328125 91.265625 -92.523438 90.515625 -93.265625 C 89.773438 -94.015625 88.578125 -94.390625 86.921875 -94.390625 L 54.921875 -94.390625 C 44.003906 -94.390625 35.898438 -92.179688 30.609375 -87.765625 C 25.316406 -83.347656 22.671875 -76.597656 22.671875 -67.515625 L 22.671875 -26.75 C 22.671875 -17.65625 25.316406 -10.921875 30.609375 -6.546875 C 35.898438 -2.179688 44.003906 0 54.921875 0 Z M 79.703125 -13.109375 L 79.703125 -11.796875 L 57.8125 -11.796875 C 49.332031 -11.796875 43.71875 -13.101562 40.96875 -15.71875 C 38.21875 -18.34375 36.84375 -22.671875 36.84375 -28.703125 L 36.84375 -65.421875 C 36.84375 -71.617188 38.238281 -76.03125 41.03125 -78.65625 C 43.832031 -81.28125 49.425781 -82.59375 57.8125 -82.59375 L 79.703125 -82.59375 L 79.703125 -81.28125 L 57.8125 -81.28125 C 50.125 -81.28125 44.921875 -80.078125 42.203125 -77.671875 C 39.492188 -75.265625 38.140625 -71.179688 38.140625 -65.421875 L 38.140625 -28.703125 C 38.140625 -23.023438 39.453125 -19.003906 42.078125 -16.640625 C 44.703125 -14.285156 49.945312 -13.109375 57.8125 -13.109375 Z M 79.703125 -13.109375 "/></g></g></g></svg>